/* XPM */
static char * G:\Moedas\Negocios\tittiecoin_2_0\share\pixmaps\bitcoin16_xpm[] = {
"16 16 144 2",
"  	c None",
". 	c #545554",
"+ 	c #696B6A",
"@ 	c #6F706F",
"# 	c #606060",
"$ 	c #656665",
"% 	c #969797",
"& 	c #A6A8A8",
"* 	c #AAACAD",
"= 	c #A8ABAB",
"- 	c #A4A6A6",
"; 	c #9A9D9D",
"> 	c #797B7A",
", 	c #7B7C7C",
"' 	c #B4B4B5",
") 	c #BEC1C2",
"! 	c #C4C8C9",
"~ 	c #D0D6D7",
"{ 	c #CED4D6",
"] 	c #C6CBCD",
"^ 	c #BABCBD",
"/ 	c #A6A9A8",
"( 	c #8B8D8D",
"_ 	c #696B6B",
": 	c #B6B6B6",
"< 	c #D1D4D6",
"[ 	c #E3EAEC",
"} 	c #D7DBDC",
"| 	c #D6DADB",
"1 	c #D4D7D7",
"2 	c #D6DADA",
"3 	c #D1D6D7",
"4 	c #C3C4C6",
"5 	c #ACADAE",
"6 	c #828485",
"7 	c #A1A4A5",
"8 	c #BEC0C0",
"9 	c #D8D9DB",
"0 	c #DADBDC",
"a 	c #D7D8D8",
"b 	c #ECEFF0",
"c 	c #E9ECEE",
"d 	c #E8EBED",
"e 	c #CCCDCE",
"f 	c #BFBEBF",
"g 	c #A4A4A5",
"h 	c #565B5B",
"i 	c #A6A9AA",
"j 	c #B6B8B9",
"k 	c #CACACA",
"l 	c #D7D7D8",
"m 	c #DDDEDF",
"n 	c #E2E4E4",
"o 	c #E1E3E2",
"p 	c #DADBDA",
"q 	c #E3E4E4",
"r 	c #DBDBDB",
"s 	c #E3E2E3",
"t 	c #C8C7C7",
"u 	c #8B8A8B",
"v 	c #737878",
"w 	c #9B9F9F",
"x 	c #A6AFB0",
"y 	c #C0C9CB",
"z 	c #EBF3F5",
"A 	c #E2E5E5",
"B 	c #D2D3D2",
"C 	c #E4E4E3",
"D 	c #DBDBDA",
"E 	c #ECECEB",
"F 	c #EAE9E9",
"G 	c #E7E6E5",
"H 	c #D9D8D8",
"I 	c #9E9E9E",
"J 	c #787E7D",
"K 	c #989B9B",
"L 	c #9AA2A3",
"M 	c #A9B2B4",
"N 	c #C2CCCC",
"O 	c #D5DDDE",
"P 	c #DEE2E2",
"Q 	c #E5E7E7",
"R 	c #E0DFDF",
"S 	c #ECECEC",
"T 	c #EFF0F0",
"U 	c #E3E3E3",
"V 	c #C1C1C1",
"W 	c #878989",
"X 	c #787E7E",
"Y 	c #909594",
"Z 	c #9CA0A0",
"` 	c #A2A8A8",
" .	c #AAAFAF",
"..	c #B4BABB",
"+.	c #B9BEBF",
"@.	c #BCC0C1",
"#.	c #C5CACB",
"$.	c #CAD0D1",
"%.	c #BABEBF",
"&.	c #A2A7A8",
"*.	c #717574",
"=.	c #848887",
"-.	c #909493",
";.	c #969A99",
">.	c #969B9A",
",.	c #919695",
"'.	c #949999",
").	c #9FA6A6",
"!.	c #A3ADAD",
"~.	c #9FA7A7",
"{.	c #969A9A",
"].	c #878A8A",
"^.	c #919292",
"/.	c #888A89",
"(.	c #838988",
"_.	c #898E8D",
":.	c #868D8B",
"<.	c #8F9593",
"[.	c #9A9F9D",
"}.	c #8D9492",
"|.	c #8B8F8E",
"1.	c #8B8C8C",
"2.	c #868786",
"3.	c #838383",
"4.	c #7A7C7B",
"5.	c #828685",
"6.	c #8A8E8C",
"7.	c #8A8E8B",
"8.	c #8D9290",
"9.	c #808684",
"0.	c #868987",
"a.	c #7D7E7C",
"b.	c #818281",
"c.	c #7F807F",
"d.	c #707271",
"e.	c #7F807E",
"f.	c #7B7D7B",
"g.	c #787A78",
"h.	c #6D6F6E",
"i.	c #70706F",
"j.	c #8D8D8C",
"k.	c #B0B1B0",
"l.	c #7D7D7C",
"m.	c #8B8A8A",
"                                ",
"            . + @ #             ",
"        $ % & * = - ; >         ",
"      , ' ) ! ~ { ] ^ / (       ",
"    _ : < [ } | 1 2 3 4 5 6     ",
"    7 8 9 0 a b c b d e f g     ",
"  h i j k l m n o p q r s t u   ",
"  v w x y z A B C D E F G H I   ",
"  J K L M N O P Q R S T U V W   ",
"  X Y Y Z `  ...+.@.#.$.%.&.*.  ",
"    =.-.;.>.,.'.Z ).!.~.{.].    ",
"    ^./.(._.:.<.[.}.}.|.1.2.    ",
"      3.4.5.6.7.8.9.0.a.b.      ",
"        c.d.e.f.g.h.i.j.        ",
"          k.j.l.l.m.            ",
"                                "};
