/* XPM */
static char *bitcoin32[] = {
/* columns rows colors chars-per-pixel */
"32 32 256 2 ",
"   c #4E2707",
".  c #492806",
"X  c #462908",
"o  c #4D2B09",
"O  c #542D09",
"+  c #57330D",
"@  c #5B350D",
"#  c #5C3711",
"$  c #593C13",
"%  c #623A0C",
"&  c #643C13",
"*  c #683E19",
"=  c #6A3F15",
"-  c #6B450D",
";  c #654315",
":  c #6A4414",
">  c #6D471B",
",  c #6E4B1A",
"<  c #6E4914",
"1  c #714A16",
"2  c #70461D",
"3  c #734E1A",
"4  c #7B5312",
"5  c #76511B",
"6  c #7B531B",
"7  c #7F5A1E",
"8  c #6F4923",
"9  c #694424",
"0  c #754B22",
"q  c #775220",
"w  c #7C5922",
"e  c #895B13",
"r  c #80571E",
"t  c #825B1C",
"y  c #835215",
"u  c #85601F",
"i  c #8D631B",
"p  c #91651B",
"a  c #90681D",
"s  c #9C6E1C",
"d  c #956211",
"f  c #9D701E",
"g  c #A3741F",
"h  c #825D23",
"j  c #845728",
"k  c #805224",
"l  c #856123",
"z  c #8A6422",
"x  c #8F6923",
"c  c #8E6A29",
"v  c #8A6229",
"b  c #956B25",
"n  c #90602D",
"m  c #926E2D",
"M  c #996A21",
"N  c #967022",
"B  c #997124",
"V  c #95722D",
"C  c #9C752B",
"Z  c #8B6532",
"A  c #8B6A3C",
"S  c #916333",
"D  c #9C7431",
"F  c #9E793A",
"G  c #A27622",
"H  c #A37629",
"J  c #A67C2D",
"K  c #A87C26",
"L  c #A87C38",
"P  c #866847",
"I  c #856747",
"U  c #A37D4D",
"Y  c #AF8126",
"T  c #BA8625",
"R  c #A68335",
"E  c #AD8632",
"W  c #A2803F",
"Q  c #AC8139",
"!  c #B48D3E",
"~  c #B38A32",
"^  c #BE9234",
"/  c #BA933D",
"(  c #BE983D",
")  c #C7942D",
"_  c #C39130",
"`  c #C69D3C",
"'  c #DDAE3E",
"]  c #D4A438",
"[  c #A88949",
"{  c #B08E4E",
"}  c #B18E44",
"|  c #B59244",
" . c #BD9445",
".. c #BB9944",
"X. c #B7934E",
"o. c #BE9D4C",
"O. c #BA964A",
"+. c #A78851",
"@. c #A88956",
"#. c #A1865B",
"$. c #AD8F58",
"%. c #BB8F5A",
"&. c #AD935F",
"*. c #B39454",
"=. c #BC9C53",
"-. c #B39259",
";. c #BD935D",
":. c #B7985C",
">. c #BC9E5E",
",. c #B39854",
"<. c #BEA05C",
"1. c #AC9266",
"2. c #B69765",
"3. c #B19369",
"4. c #B99A6A",
"5. c #BD9560",
"6. c #A9937A",
"7. c #BB9D71",
"8. c #BFA267",
"9. c #BCA16C",
"0. c #B6A166",
"q. c #BFA174",
"w. c #BFA579",
"e. c #C19744",
"r. c #C19A45",
"t. c #C89F40",
"y. c #C09D4A",
"u. c #CCA443",
"i. c #C4A34C",
"p. c #CBA64D",
"a. c #CCA94C",
"s. c #C6A146",
"d. c #D7A941",
"f. c #D0AE4E",
"g. c #D9AD41",
"h. c #CAA752",
"j. c #CCAB54",
"k. c #C5A55A",
"l. c #C6A85E",
"z. c #CEAC5D",
"x. c #C2A357",
"c. c #D4AF57",
"v. c #D1AC59",
"b. c #CEB057",
"n. c #CFB25D",
"m. c #D4B357",
"M. c #DBB554",
"N. c #D4B35C",
"B. c #D7B85A",
"V. c #DCBB5E",
"C. c #DCB75C",
"Z. c #E0B347",
"A. c #E1B84B",
"S. c #E2BF5A",
"D. c #E3BC54",
"F. c #C29B68",
"G. c #C9AC64",
"H. c #C5A966",
"J. c #CDB162",
"K. c #CBB16E",
"L. c #DBBC62",
"P. c #D7BB6A",
"I. c #DABD6A",
"U. c #D3B863",
"Y. c #C2A674",
"T. c #C2A97E",
"R. c #C2AE71",
"E. c #CFBD74",
"W. c #D8BE74",
"Q. c #D6BD75",
"!. c #E2BF60",
"~. c #E4C05E",
"^. c #DFC261",
"/. c #DDC26D",
"(. c #DDC271",
"). c #E3C266",
"_. c #E8C761",
"`. c #E1C469",
"'. c #E5C96C",
"]. c #E9CC6D",
"[. c #E2C674",
"{. c #E6CC71",
"}. c #EACD71",
"|. c #E0C87B",
" X c #EED273",
".X c #EED47B",
"XX c #F6DC74",
"oX c #F4DB7B",
"OX c #F0D57A",
"+X c #B39F8D",
"@X c #B4A189",
"#X c #C2AC83",
"$X c #C8AE81",
"%X c #CCB68B",
"&X c #CFB889",
"*X c #CDB486",
"=X c #D6B683",
"-X c #D1BA8D",
";X c #D5B988",
":X c #D6BF92",
">X c #D8BF92",
",X c #CDBDAA",
"<X c #DBCC89",
"1X c #DBC696",
"2X c #DBC699",
"3X c #DECA9D",
"4X c #E9D885",
"5X c #F7DE81",
"6X c #F9DF80",
"7X c #F2DF89",
"8X c #E2CB9B",
"9X c #E8CE9C",
"0X c #E1D590",
"qX c #ECD89B",
"wX c #FAE383",
"eX c #FCE98D",
"rX c #F8E389",
"tX c #FFF58F",
"yX c #EDE29A",
"uX c #FFEF93",
"iX c #F2E79F",
"pX c #FCEF9D",
"aX c #FFF296",
"sX c #FFF29F",
"dX c #DFCEA1",
"fX c #DED0B5",
"gX c #E0CFA3",
"hX c #EBD5A5",
"jX c #EFDDA0",
"kX c #EBD6AA",
"lX c #F0DAAD",
"zX c #EADBB1",
"xX c #F1DDB1",
"cX c #F3E7A0",
"vX c #F7EAA5",
"bX c #F8EBA6",
"nX c #FFF4A1",
"mX c #F5E1B2",
"MX c #F8E6BA",
"NX c #FDEBBD",
"BX c #FFF0BF",
"VX c #FFEEC1",
"CX c #F3E5C8",
"ZX c #FFF2C5",
"AX c #FFF8C5",
"SX c #FFF5C9",
"DX c #FFF9CD",
"FX c #F2ECDE",
"GX c #FFF4D1",
"HX c #FFFDD4",
"JX c #FFFCDE",
"KX c #FCF7E6",
"LX c #FFFDE1",
"PX c #F5F0E2",
"IX c #FFFEF3",
"UX c None",
/* pixels */
"UXUXUXUXUXUXUXUXUXUXUXUXUXUXUXUXUXUXUXUXUXUXUXUXUXUXUXUXUXUXUXUX",
"UXUXUXUXUXUXUXUXUXUXUXUXUXUXUXUXUXUXUXUXUXUXUXUXUXUXUXUXUXUXUXUX",
"UXUXUXUXUXUXUXUXUXUXUXUXUX: h c c c l 1 UXUXUXUXUXUXUXUXUXUXUXUX",
"UXUXUXUXUXUXUXUXUXUXUXv | n.n./.{.'.U.U.o.m 5 UXUXUXUXUXUXUXUXUX",
"UXUXUXUXUXUXUXUXUXB j.'.wX|.K.eXrXeX(.Q.eX XB.R UXUXUXUXUXUXUXUX",
"UXUXUXUXUXUXUX3 e.L..X5X5XoX(.`.`.'.(..XwXwX.XL.a.t UXUXUXUXUXUX",
"UXUXUXUXUXUX5 a.].[.W.}.k.G.H.7.Y.7.F.G.x.'.(.W. XB.z UXUXUXUXUX",
"UXUXUXUXUX5 a.].]. XG.$.:XMXZXSXAXAXZXMX:X@.>.}.'.].M.u UXUXUXUX",
"UXUXUXUXUX( z.).).,.-XZXSXVXVXVXVXVXVXZXSXZX-X{ I.!.k.s.: UXUXUX",
"UXUXUXUXB v.>.z.:.w.dX3XNXAXVXVXVXVXVXAXVX3XdX@X$.k.;.N.E UXUXUX",
"UXUXUXUXu.v.m.{ %XZXzX%X#.-XSXVXVXVXDX1X#.#XzXZX%X+.v.v.a.t UXUX",
"UXUXUXx p.e. .1XZXVXZXLXPX@X#.SXZXZX1.6.FXLXZXVXZX3X=.y.h.C UXUX",
"UXUXUXE e.Q 8XDXZXVXNXNXSXIX+XT.HX%X6.IXGXNXVXVXVXGXkXX.e.` : UX",
"UXUX< ` H =XDXVXVXZXZXNXNXVXKXP 1XI FXZXNXVXZXZXZXVXSX8XL t.t UX",
"UXUXt ^ b hXmXdX%X$X>XmXAXVXDX,X2 +XHXVXVXlX-XT.*X8XmXxXF ^ N UX",
"UXUXa Y S qXbXcXyX0XR.9.Y.8XAXCX9 fXZX2X3.&.0.<XyXiXbXjXF K K UX",
"UXUXp G p 4XnXpXpXnXnXsX<X[ 4.MXI kX3.A E.pXnXnXpXpXsX7XM s G UX",
"UXUXe s e S.uXeXeXeXeXeXuXuXG.[ 8 A ,.7XaXeXeXeXeXeXuX].d p s UX",
"UXUX4 B y ) XXwX5XwXwXwXwXwXtXU.O X.tXwXwXwXwXwXwXrXwXu.e i p UX",
"UXUX- H : T ] XXoXoXoXoXoXoXwXX.  [ wXoXoXoXoXoXoXoXM._ - s 4 UX",
"UXUXUXB 5 b ] g._. X X X X XL.> * & c. X X X XOX}.M.d.H @ B - UX",
"UXUXUXz D # J ' g.M.~.).`.C.m 2 U 0 h m.).).).L.M.Z.~ + i b UXUX",
"UXUXUXUX| h @ h ` A.~.V.o.3 = ;.;XF.= ; O.C.S.D.u.z . < / y UXUX",
"UXUXUXUXB | v # + ; 7 , % k 5.9XmXhXF.j % ; , $ . O 7 ! E UXUXUX",
"UXUXUXUXUXr.o.D t @ # S %.=XhXMXVXNXhX;X%.n o X 6 D O.p.# UXUXUX",
"UXUXUXUXUX; f.f...! V Z 7.kXVXSXSXZXZXkXq.Z c | y.j.B.h UXUXUXUX",
"UXUXUXUXUXUX5 m.^.,.l.j.} { :.2.4.2.,.{ } h.<.*.L.L.c UXUXUXUXUX",
"UXUXUXUXUXUXUX1 i./.P.`.`.N.o.y.o.i.o.N.`./.P.(.z.l UXUXUXUXUXUX",
"UXUXUXUXUXUXUXUXUXC L.].}.J.>.P.'.].G.J.].].^.R UXUXUXUXUXUXUXUX",
"UXUXUXUXUXUXUXUXUXUXUXV ..L./.].}.].'.L.i.F 5 UXUXUXUXUXUXUXUXUX",
"UXUXUXUXUXUXUXUXUXUXUXUXUX: l m V V l < UXUXUXUXUXUXUXUXUXUXUXUX",
"UXUXUXUXUXUXUXUXUXUXUXUXUXUXUXUXUXUXUXUXUXUXUXUXUXUXUXUXUXUXUXUX"
};
