/* XPM */
static char * G:\Moedas\Negocios\tittiecoin_2_0\share\pixmaps\bitcoin32_xpm[] = {
"32 32 595 2",
"  	c None",
". 	c #616261",
"+ 	c #797B7A",
"@ 	c #7B7D7C",
"# 	c #7C7F7E",
"$ 	c #808482",
"% 	c #7F8381",
"& 	c #7B7F7D",
"* 	c #7C807E",
"= 	c #828483",
"- 	c #787877",
"; 	c #6F7170",
"> 	c #7F8281",
", 	c #808382",
"' 	c #858786",
") 	c #8F9291",
"! 	c #9A9C9B",
"~ 	c #A1A2A2",
"{ 	c #A3A5A5",
"] 	c #979999",
"^ 	c #8B8D8C",
"/ 	c #818483",
"( 	c #858A88",
"_ 	c #868786",
": 	c #666766",
"< 	c #8D918F",
"[ 	c #8C8F8F",
"} 	c #919291",
"| 	c #A8A8A8",
"1 	c #B7B6B7",
"2 	c #AEAFAF",
"3 	c #B5B8B9",
"4 	c #C0C1C2",
"5 	c #B9BDBE",
"6 	c #B2B5B5",
"7 	c #B2B3B4",
"8 	c #B4B6B6",
"9 	c #A9ABAB",
"0 	c #959999",
"a 	c #7F8482",
"b 	c #848987",
"c 	c #8B8B8A",
"d 	c #8A8C8C",
"e 	c #9B9D9D",
"f 	c #B1B1B2",
"g 	c #B8BABB",
"h 	c #B5B7B8",
"i 	c #B4B8B8",
"j 	c #B5B9BA",
"k 	c #BCBEBF",
"l 	c #BDC2C3",
"m 	c #BCC3C4",
"n 	c #B7BABB",
"o 	c #B7BCBE",
"p 	c #B6BBBD",
"q 	c #B8BBBA",
"r 	c #B6B8B8",
"s 	c #A5A7A7",
"t 	c #898D8C",
"u 	c #808582",
"v 	c #8C8D8D",
"w 	c #767877",
"x 	c #A2A1A1",
"y 	c #BAB9B9",
"z 	c #B4B5B6",
"A 	c #B3B6B7",
"B 	c #BABEBF",
"C 	c #C1C6C6",
"D 	c #C1C6C7",
"E 	c #CFD3D4",
"F 	c #D4DBDC",
"G 	c #D4DCDD",
"H 	c #C5C9CA",
"I 	c #CCD2D4",
"J 	c #CCD3D4",
"K 	c #B7BABA",
"L 	c #B7B8B8",
"M 	c #B6B5B5",
"N 	c #949696",
"O 	c #787D7D",
"P 	c #8B8C8D",
"Q 	c #676969",
"R 	c #868887",
"S 	c #A4A3A3",
"T 	c #BAB9BA",
"U 	c #BDC0C2",
"V 	c #C8CDCE",
"W 	c #D1D6D7",
"X 	c #D8DEDF",
"Y 	c #DDE5E6",
"Z 	c #D2D6D7",
"` 	c #DFE5E6",
" .	c #EAF4F5",
"..	c #EBF5F6",
"+.	c #DAE0E1",
"@.	c #DCE2E3",
"#.	c #D4D8D9",
"$.	c #CDCFCF",
"%.	c #C5C6C6",
"&.	c #BABBBB",
"*.	c #B8BABA",
"=.	c #B9B9B9",
"-.	c #959797",
";.	c #787E7F",
">.	c #959595",
",.	c #3E4040",
"'.	c #888C8B",
").	c #9C9C9B",
"!.	c #BDBDBD",
"~.	c #BCBDBE",
"{.	c #D3D7D9",
"].	c #DCE1E3",
"^.	c #E4EBED",
"/.	c #EAF3F4",
"(.	c #D9DDDE",
"_.	c #D4D6D6",
":.	c #DCE2E2",
"<.	c #DBE1E1",
"[.	c #DCE1E2",
"}.	c #D3D5D6",
"|.	c #D4D5D6",
"1.	c #E6EAEC",
"2.	c #EDF4F7",
"3.	c #DBE0E1",
"4.	c #C3C6C6",
"5.	c #BDC0C1",
"6.	c #B8B8B8",
"7.	c #8F9293",
"8.	c #7D8283",
"9.	c #949797",
"0.	c #B4B3B3",
"a.	c #C2C3C5",
"b.	c #E2E6E9",
"c.	c #EBF0F3",
"d.	c #EFF6F8",
"e.	c #DDE1E2",
"f.	c #D5D5D5",
"g.	c #CDCDCD",
"h.	c #C3C3C3",
"i.	c #C4C4C3",
"j.	c #C4C4C4",
"k.	c #C8C8C8",
"l.	c #D0D2D2",
"m.	c #CFD1D3",
"n.	c #CDD0D0",
"o.	c #CACCCC",
"p.	c #C7C8C9",
"q.	c #C1C1C2",
"r.	c #B6B5B6",
"s.	c #898E8F",
"t.	c #939594",
"u.	c #3B3F3E",
"v.	c #8B9191",
"w.	c #A6A8A8",
"x.	c #BBBDBE",
"y.	c #C2C4C5",
"z.	c #D2D3D4",
"A.	c #EAEFF1",
"B.	c #DFE2E3",
"C.	c #D5D4D4",
"D.	c #D6D7D8",
"E.	c #F2F6F7",
"F.	c #F2F6F8",
"G.	c #F1F6F8",
"H.	c #F2F6F6",
"I.	c #F0F6F7",
"J.	c #EBF0F1",
"K.	c #D0D2D3",
"L.	c #C8C9CA",
"M.	c #C6C6C7",
"N.	c #B9B9BA",
"O.	c #BBBABB",
"P.	c #A1A1A2",
"Q.	c #838787",
"R.	c #656B6A",
"S.	c #8A8F8F",
"T.	c #ABABAC",
"U.	c #A9ACAD",
"V.	c #BDC0C0",
"W.	c #CBCDCE",
"X.	c #D5D3D3",
"Y.	c #CBCACA",
"Z.	c #DADADB",
"`.	c #FDFFFF",
" +	c #FCFFFF",
".+	c #FEFFFF",
"++	c #F9FDFF",
"@+	c #F8FBFD",
"#+	c #F8FBFC",
"$+	c #F5F8FA",
"%+	c #F8FDFE",
"&+	c #DEDEDE",
"*+	c #D7D8D8",
"=+	c #CECECE",
"-+	c #C5C4C4",
";+	c #BAB8B8",
">+	c #B5B3B3",
",+	c #8D8F8F",
"'+	c #9B9B9B",
")+	c #828989",
"!+	c #969999",
"~+	c #B1B1B0",
"{+	c #B2B3B3",
"]+	c #BDBEBE",
"^+	c #D2D2D2",
"/+	c #D6D6D6",
"(+	c #D5D4D5",
"_+	c #CCCDCD",
":+	c #E7E9EA",
"<+	c #F8F9F9",
"[+	c #CCCDCC",
"}+	c #D9D9D9",
"|+	c #DFDFDF",
"1+	c #D1D2D1",
"2+	c #C3C4C3",
"3+	c #CECFCE",
"4+	c #F3F6F7",
"5+	c #E6E7E7",
"6+	c #D6D5D5",
"7+	c #D4D4D4",
"8+	c #DFDEDE",
"9+	c #DAD9D9",
"0+	c #C3C1C1",
"a+	c #A4A4A4",
"b+	c #999B9B",
"c+	c #889192",
"d+	c #999C9C",
"e+	c #ACAFB0",
"f+	c #B6BABA",
"g+	c #DADBDC",
"h+	c #CFD0CF",
"i+	c #C7C9C7",
"j+	c #D5D7D6",
"k+	c #BABBBA",
"l+	c #ECEDEC",
"m+	c #DCDDDC",
"n+	c #D7D8D7",
"o+	c #F6F5F5",
"p+	c #DADAD9",
"q+	c #EAECEC",
"r+	c #D9D8D8",
"s+	c #ECEBEB",
"t+	c #FAFCFB",
"u+	c #F8F8F8",
"v+	c #D7D5D6",
"w+	c #CCCCCC",
"x+	c #A7A9A9",
"y+	c #454A49",
"z+	c #959E9E",
"A+	c #979A9A",
"B+	c #999E9F",
"C+	c #9FA7A8",
"D+	c #AAB3B4",
"E+	c #B8C1C1",
"F+	c #C3CBCC",
"G+	c #D3DCDD",
"H+	c #F3FAFC",
"I+	c #E9EBEB",
"J+	c #CACBC9",
"K+	c #D0D2D0",
"L+	c #D3D4D3",
"M+	c #FAFAFA",
"N+	c #DCDCDC",
"O+	c #CBCBCB",
"P+	c #CCCCCB",
"Q+	c #E9E9E8",
"R+	c #E0DFDF",
"S+	c #DDDCDC",
"T+	c #EEEDED",
"U+	c #E4E3E3",
"V+	c #DCDBDA",
"W+	c #D4D3D3",
"X+	c #E3E2E2",
"Y+	c #575E5C",
"Z+	c #939998",
"`+	c #94999A",
" @	c #9BA2A4",
".@	c #A8B1B2",
"+@	c #B3BFC1",
"@@	c #C1CCCE",
"#@	c #CCD7D9",
"$@	c #DFEAEC",
"%@	c #ECF6F7",
"&@	c #F4FCFB",
"*@	c #CECFCF",
"=@	c #F1F1F2",
"-@	c #F9F9F9",
";@	c #D9DAD9",
">@	c #F3F3F2",
",@	c #FBFBFB",
"'@	c #FCFEFE",
")@	c #FCFCFC",
"!@	c #F7F7F7",
"~@	c #D3D2D2",
"{@	c #E9E8E8",
"]@	c #D1D0D0",
"^@	c #BEBCBC",
"/@	c #9D9FA0",
"(@	c #5D6363",
"_@	c #909594",
":@	c #939493",
"<@	c #919593",
"[@	c #A0A7A9",
"}@	c #A4AFB1",
"|@	c #AEB9BB",
"1@	c #BBC0C1",
"2@	c #C7D1D4",
"3@	c #D5E0E2",
"4@	c #E5EFF1",
"5@	c #E0E6E8",
"6@	c #F7F9FA",
"7@	c #F4F5F6",
"8@	c #DBDBDA",
"9@	c #FAFBFB",
"0@	c #FCFCFD",
"a@	c #F6F6F6",
"b@	c #E7E6E6",
"c@	c #E8E7E7",
"d@	c #DEDDDC",
"e@	c #ACAAAA",
"f@	c #8F9392",
"g@	c #585E5D",
"h@	c #9AA1A0",
"i@	c #919392",
"j@	c #969C9B",
"k@	c #9FA4A4",
"l@	c #97A0A0",
"m@	c #99A1A3",
"n@	c #9FA8AA",
"o@	c #BBC0C0",
"p@	c #B9C3C4",
"q@	c #C3CBCB",
"r@	c #CED3D3",
"s@	c #D5DBDB",
"t@	c #D7DDDC",
"u@	c #D3D6D6",
"v@	c #E9ECED",
"w@	c #EAEDED",
"x@	c #D6D5D6",
"y@	c #D7D7D7",
"z@	c #DCDBDB",
"A@	c #F2F2F3",
"B@	c #DDDDDC",
"C@	c #E8E9EA",
"D@	c #D1D1D0",
"E@	c #BBBBBA",
"F@	c #ADADAE",
"G@	c #8F9595",
"H@	c #4E5352",
"I@	c #9FA9A8",
"J@	c #898C8B",
"K@	c #989A99",
"L@	c #989C9B",
"M@	c #929796",
"N@	c #9BA0A1",
"O@	c #B3B7B6",
"P@	c #A8B1B0",
"Q@	c #B5BDBD",
"R@	c #C2C6C5",
"S@	c #C5CAC9",
"T@	c #CAD2D2",
"U@	c #D3DBDC",
"V@	c #D1D7D8",
"W@	c #CED4D4",
"X@	c #CBCFD0",
"Y@	c #CBCECF",
"Z@	c #CCCECD",
"`@	c #E6ECEC",
" #	c #D2D8D8",
".#	c #CACECF",
"+#	c #C0C5C6",
"@#	c #ABAEAF",
"##	c #B2B7B8",
"$#	c #979E9E",
"%#	c #949E9D",
"&#	c #848988",
"*#	c #898F8E",
"=#	c #919695",
"-#	c #999D9C",
";#	c #A2A7A6",
">#	c #9DA2A2",
",#	c #A1A6A7",
"'#	c #A4AAAA",
")#	c #A6ADAD",
"!#	c #AAB0B1",
"~#	c #AFB5B6",
"{#	c #AEB3B4",
"]#	c #B1B5B6",
"^#	c #B5BABA",
"/#	c #B9BEBE",
"(#	c #C6CDCF",
"_#	c #C2C8C9",
":#	c #C2CACB",
"<#	c #B6BABB",
"[#	c #ADB2B3",
"}#	c #9C9E9E",
"|#	c #989EA0",
"1#	c #808686",
"2#	c #868F8D",
"3#	c #848A89",
"4#	c #828584",
"5#	c #868E8D",
"6#	c #9A9E9D",
"7#	c #959998",
"8#	c #949997",
"9#	c #9EA1A1",
"0#	c #9B9F9E",
"a#	c #969A99",
"b#	c #989B9B",
"c#	c #9B9E9E",
"d#	c #9DA0A1",
"e#	c #9FA2A3",
"f#	c #A2A6A7",
"g#	c #A4A8A9",
"h#	c #A9AFB0",
"i#	c #B0BABC",
"j#	c #B3B8B9",
"k#	c #B3BCBE",
"l#	c #B3BABC",
"m#	c #AAB0B0",
"n#	c #A4A8A8",
"o#	c #9B9E9F",
"p#	c #8E8F90",
"q#	c #888F90",
"r#	c #6D7171",
"s#	c #848989",
"t#	c #8F9594",
"u#	c #909493",
"v#	c #8A908F",
"w#	c #929695",
"x#	c #9DA1A0",
"y#	c #969B9A",
"z#	c #9BA19F",
"A#	c #9B9F9F",
"B#	c #9CA09F",
"C#	c #9DA3A2",
"D#	c #A7ACAC",
"E#	c #A0A5A5",
"F#	c #A5A9A9",
"G#	c #9CA4A4",
"H#	c #9BA7A8",
"I#	c #A2ACAC",
"J#	c #A9B0B1",
"K#	c #9AA2A3",
"L#	c #969E9F",
"M#	c #929999",
"N#	c #929494",
"O#	c #929293",
"P#	c #908F8F",
"Q#	c #8B8C8C",
"R#	c #979A99",
"S#	c #878C8A",
"T#	c #8B918F",
"U#	c #8F9593",
"V#	c #939796",
"W#	c #848C8B",
"X#	c #8B908F",
"Y#	c #848D8C",
"Z#	c #848F8E",
"`#	c #9BA2A1",
" $	c #929A98",
".$	c #9CA1A0",
"+$	c #8E9896",
"@$	c #8F9998",
"#$	c #858E8D",
"$$	c #838A89",
"%$	c #8E9290",
"&$	c #989797",
"*$	c #989897",
"=$	c #787A7A",
"-$	c #888B8B",
";$	c #8D8C8C",
">$	c #858887",
",$	c #7B8180",
"'$	c #828887",
")$	c #8D9190",
"!$	c #818887",
"~$	c #848B8A",
"{$	c #8A8F8D",
"]$	c #9EA3A2",
"^$	c #868E8C",
"/$	c #8E9493",
"($	c #9DA09F",
"_$	c #858C8B",
":$	c #8A8F8E",
"<$	c #8E918F",
"[$	c #9C9E9D",
"}$	c #949292",
"|$	c #898B8A",
"1$	c #777877",
"2$	c #878B8A",
"3$	c #929292",
"4$	c #888887",
"5$	c #7E8381",
"6$	c #797F7E",
"7$	c #7E8382",
"8$	c #8C908F",
"9$	c #888E8D",
"0$	c #8E9391",
"a$	c #858C89",
"b$	c #929795",
"c$	c #9CA09E",
"d$	c #979C9A",
"e$	c #888F8C",
"f$	c #818885",
"g$	c #838A87",
"h$	c #949795",
"i$	c #797E7C",
"j$	c #7C827F",
"k$	c #8D8B8A",
"l$	c #6C6E6C",
"m$	c #999B99",
"n$	c #8E8C8C",
"o$	c #7F7F7E",
"p$	c #888A89",
"q$	c #7F8382",
"r$	c #888C8A",
"s$	c #8C8F8E",
"t$	c #8B8E8D",
"u$	c #8A8D8B",
"v$	c #8D908E",
"w$	c #8B8F8D",
"x$	c #919794",
"y$	c #8B908E",
"z$	c #7F8683",
"A$	c #838885",
"B$	c #828684",
"C$	c #8D908F",
"D$	c #767A78",
"E$	c #888988",
"F$	c #838281",
"G$	c #8A8989",
"H$	c #707271",
"I$	c #8C8E8D",
"J$	c #8A8988",
"K$	c #7B7A79",
"L$	c #7C7E7D",
"M$	c #7E8280",
"N$	c #8F9290",
"O$	c #979897",
"P$	c #8B8C8B",
"Q$	c #898D8B",
"R$	c #838785",
"S$	c #7E817F",
"T$	c #7A7D7B",
"U$	c #7C7C7C",
"V$	c #82807F",
"W$	c #878786",
"X$	c #747674",
"Y$	c #9D9E9E",
"Z$	c #7F807F",
"`$	c #70716F",
" %	c #747473",
".%	c #878887",
"+%	c #939492",
"@%	c #8B8D8B",
"#%	c #868886",
"$%	c #858785",
"%%	c #6A6F6D",
"&%	c #787B79",
"*%	c #7B7B7A",
"=%	c #7A7978",
"-%	c #848382",
";%	c #858684",
">%	c #7A7C7A",
",%	c #7F8180",
"'%	c #707372",
")%	c #737473",
"!%	c #7D7C7B",
"~%	c #787777",
"{%	c #7D7C7C",
"]%	c #7F7E7E",
"^%	c #757675",
"/%	c #777776",
"(%	c #6F6F6E",
"_%	c #696968",
":%	c #646464",
"<%	c #737472",
"[%	c #7B7C7B",
"}%	c #7F807E",
"|%	c #797978",
"1%	c #727271",
"2%	c #767675",
"3%	c #6F706E",
"4%	c #71716F",
"5%	c #747372",
"6%	c #6C6B6B",
"7%	c #6D6E6D",
"8%	c #8D8E8D",
"9%	c #979695",
"0%	c #858584",
"a%	c #818180",
"b%	c #7E7D7D",
"c%	c #898888",
"d%	c #A4A4A3",
"                                                                ",
"                                                                ",
"                      . + @ # $ % & * = -                       ",
"                  ; > , ' ) ! ~ { ] ^ / ( ( _                   ",
"              : < [ } | 1 2 3 4 5 6 7 8 9 0 a b c               ",
"            + d e f g h i j k l m n o p q r s t u v             ",
"          w ' x y z A B C D E F G H I J K 3 L M N O P           ",
"        Q R S T U V W X Y Z `  ...+.@.#.$.%.&.*.=.-.;.>.        ",
"      ,.'.).!.~.{.].^./.(._.:.<.[.}.|.1.2.3.4.5.k 6.7.8.        ",
"      O 9.0.4 a.b.c.d.e.f.g.h.i.j.j.k.l.m.n.#.o.p.q.r.s.t.      ",
"    u.v.w.x.y.~.z.A.B.C.g.D.E.F.G.H.F.G.I.J.K.L.M.N.O.P.Q.      ",
"    R.S.T.U.V.W.D.f.X.Y.Z.`. +.+++@+#+$+++%+&+*+=+-+;+>+,+'+    ",
"    )+!+~+{+]+M.^+/+Y.(+_+:+<+[+}+|+1+2+3+4+5+6+7+8+9+0+a+b+    ",
"    c+d+w.e+f+5.y.j.g+.+h+i+j+k+l+m+n+o+p+q+r+8+s+t+u+v+w+x+    ",
"  y+z+A+B+C+D+E+F+G+H+ +I+J+K+L+M+N+L+O+P+Q+R+S+T+U+V+W+X+h     ",
"  Y+Z+9.`+ @.@+@@@#@$@%@&@*@2+=@-@;@n+>@,@'@)@!@~@{@U+]@^@/@    ",
"  (@_@:@<@B+[@}@|@1@2@3@4@5@_.6@7@|+8@-@)@9@0@a@b@c@d@~@e@f@    ",
"  g@h@i@j@k@l@m@n@o@p@q@r@s@t@u@v@w@x@y@r+z@A@B@.+C@D@E@F@G@    ",
"  H@I@J@K@L@M@L@N@O@P@Q@R@S@T@U@V@W@X@Y@Z@o.`@$. #.#+#@###$#    ",
"    %#&#t.S.*#=#-#;#>#,#'#)#!#~#{#]#^#/#D +#(#_#:#<#[#}#|#1#    ",
"    2#3#4#5#6#7#8#9#0#a#b#-#c#d#e#f#g#h#i#j#k#l#m#n#o#p#q#r#    ",
"    s#t#_ u#v#w#8#x#y#z#A#B#>#C#D#E#F#G#H#I#J#K#L#M#N#O#1#      ",
"      =#P#Q#R#S#T#U#V#5#W#X#Y#Z#`#y# $.$+$@$;##$$$%$&$*$=$      ",
"      -$! ;$>$,$'$)$'.!$~$X#{$_@]$t#^$/$($_$:$<$[$_ }$|$1$      ",
"        2$3$4$5$6$7$8$!$9$0$a$b$c$d$e$f$g$h$i$j$*$k$v l$        ",
"        m$) n$o$p$q$r$s$t$u$v$w$x$y$z$A$B$C$D$E$F$G$H$          ",
"          :@I$J$K$L$M$N$O$P$} i$Q$R$M$S$T$/ U$V$W$X$            ",
"            Y$= Z$`$ %.%+%@%#%/ $%@ %%&%*%=%-%;%>%              ",
"                ,%'%)%!%~%{%]%^%- /%(%_%:%<%[%}                 ",
"                    E$}%|%1%2%/%3%4%5%6%7%8%                    ",
"                          9%0%a%b%c%d%                          ",
"                                                                "};
