/* XPM */
static char *bitcoin64[] = {
/* columns rows colors chars-per-pixel */
"48 48 256 2 ",
"   c #371C04",
".  c #2D1603",
"X  c #3F2004",
"o  c #452306",
"O  c #4C2A0A",
"+  c #472708",
"@  c #532E0C",
"#  c #5C2F08",
"$  c #55310D",
"%  c #5A330C",
"&  c #5E380B",
"*  c #5D3B12",
"=  c #583611",
"-  c #613B0E",
";  c #643408",
":  c #633C13",
">  c #693F12",
",  c #693F18",
"<  c #69440E",
"1  c #664112",
"2  c #6B4412",
"3  c #65431B",
"4  c #6A441B",
"5  c #6E4B1A",
"6  c #6E4815",
"7  c #734C16",
"8  c #794F13",
"9  c #734B1B",
"0  c #774C1A",
"q  c #7B5416",
"w  c #76511A",
"e  c #7B541D",
"r  c #7D591C",
"t  c #775116",
"y  c #72490D",
"u  c #6E4A28",
"i  c #744E25",
"p  c #78552A",
"a  c #7E5F41",
"s  c #7F6142",
"d  c #825B1B",
"f  c #865819",
"g  c #80540F",
"h  c #8C621B",
"j  c #94661A",
"k  c #9E701E",
"l  c #AA751A",
"z  c #B07C1F",
"x  c #835D24",
"c  c #865B28",
"v  c #835D34",
"b  c #905E29",
"n  c #8B6423",
"m  c #8D672D",
"M  c #936C24",
"N  c #936C2B",
"B  c #996A21",
"V  c #9A7323",
"C  c #9C752C",
"Z  c #9A7527",
"A  c #86663B",
"S  c #8A693E",
"D  c #896738",
"F  c #926D36",
"G  c #9A7433",
"H  c #9E7B31",
"J  c #99763C",
"K  c #A77928",
"L  c #A17C3D",
"P  c #A47739",
"I  c #B57E20",
"U  c #8B6B42",
"Y  c #957244",
"T  c #99784B",
"R  c #947653",
"E  c #A97D47",
"W  c #A87F53",
"Q  c #937B64",
"!  c #AA842D",
"~  c #BA8924",
"^  c #B48629",
"/  c #A48234",
"(  c #AB8434",
")  c #A6823D",
"_  c #AA843C",
"`  c #AD8938",
"'  c #B58C3C",
"]  c #B68B37",
"[  c #BB9434",
"{  c #BA943D",
"}  c #B6933B",
"|  c #C28E29",
" . c #C4942C",
".. c #C59C34",
"X. c #C29A3D",
"o. c #C99936",
"O. c #D09E32",
"+. c #C9A13D",
"@. c #D3A53D",
"#. c #D5A73B",
"$. c #AD8D4C",
"%. c #A88746",
"&. c #B28A45",
"*. c #B69442",
"=. c #BD9543",
"-. c #BC9A42",
";. c #BA974A",
":. c #AB8B5C",
">. c #A68857",
",. c #B68A54",
"<. c #AE935A",
"1. c #B3955A",
"2. c #BB9C5C",
"3. c #B89456",
"4. c #BDA05B",
"5. c #9E8977",
"6. c #A68B68",
"7. c #AD9164",
"8. c #AF976D",
"9. c #B79A6D",
"0. c #B69967",
"q. c #B5966A",
"w. c #BDA266",
"e. c #BCA378",
"r. c #C29B44",
"t. c #C49D4B",
"y. c #C69B43",
"u. c #C19F5F",
"i. c #CBA343",
"p. c #C6A44B",
"a. c #C9A44C",
"s. c #CCA94C",
"d. c #C8A447",
"f. c #D4AB45",
"g. c #D5AE4C",
"h. c #D9AE47",
"j. c #DAB24A",
"k. c #C5A353",
"l. c #CAA552",
"z. c #CCAB52",
"x. c #CCAD5B",
"c. c #C3A75C",
"v. c #D2AE54",
"b. c #D1AE5A",
"n. c #CDB158",
"m. c #D4B153",
"M. c #DBB555",
"N. c #DBB956",
"B. c #D3B25A",
"V. c #DAB75C",
"C. c #DDBA5C",
"Z. c #D6B85D",
"A. c #E3B747",
"S. c #E2BC56",
"D. c #C19A67",
"F. c #C4A564",
"G. c #C6A963",
"H. c #C4AB6D",
"J. c #C6AA66",
"K. c #CCB26B",
"L. c #CFB164",
"P. c #D4B463",
"I. c #DCBD63",
"U. c #D5BB69",
"Y. c #D4B867",
"T. c #C3A375",
"R. c #C5AA7B",
"E. c #C9AA78",
"W. c #CBB778",
"Q. c #D1B07F",
"!. c #D2B870",
"~. c #E1BF63",
"^. c #DEC05D",
"/. c #E0C25F",
"(. c #DEC166",
"). c #DEC26A",
"_. c #DCC37A",
"`. c #E3C364",
"'. c #E3C56A",
"]. c #E5CA6C",
"[. c #EACD6C",
"{. c #EBCC66",
"}. c #ECD06F",
"|. c #E5CC73",
" X c #EBCD71",
".X c #E4CA78",
"XX c #EED375",
"oX c #EDD47D",
"OX c #F1D575",
"+X c #F4DB7C",
"@X c #F4D979",
"#X c #F3D66D",
"$X c #F9E17F",
"%X c #B8A48B",
"&X c #CCB386",
"*X c #D2B585",
"=X c #D5B98A",
"-X c #D6BE92",
";X c #CDBB90",
":X c #C8B8A9",
">X c #D8C38A",
",X c #D5C194",
"<X c #DDC394",
"1X c #DCC89B",
"2X c #F4DC81",
"3X c #F6DF89",
"4X c #E3C998",
"5X c #ECD592",
"6X c #FAE383",
"7X c #FBE78A",
"8X c #FEEB8B",
"9X c #F9E487",
"0X c #FFF38D",
"qX c #EBE19B",
"wX c #FBEA92",
"eX c #FBEC9A",
"rX c #F6E797",
"tX c #FFF39B",
"yX c #FFF593",
"uX c #E6CEA1",
"iX c #EBD4A4",
"pX c #ECD6A8",
"aX c #E8D6A7",
"sX c #F1DCAD",
"dX c #F1DDA6",
"fX c #EEDFB2",
"gX c #F1DFB1",
"hX c #F6EBA5",
"jX c #FAEEA4",
"kX c #F3E5A4",
"lX c #FDF2A3",
"zX c #FFF9A9",
"xX c #EEE1B6",
"cX c #F5E2B4",
"vX c #FAE7B9",
"bX c #FEECBD",
"nX c #F8E5B7",
"mX c #FFF1BE",
"MX c #DBD1C5",
"NX c #E5DCD0",
"BX c #FFEEC1",
"VX c #F8EBCD",
"CX c #FFF2C4",
"ZX c #FFF5C9",
"AX c #FFF9CC",
"SX c #FFF3D2",
"DX c #FFFCDD",
"FX c #FFF5DA",
"GX c #F8EED9",
"HX c #FFFCE2",
"JX c #FFFCEB",
"KX c #FFF7E3",
"LX c #FFFFFD",
"PX c #FFFEF3",
"IX c #F0EEED",
"UX c None",
/* pixels */
"UXUXUXUXUXUXUXUXUXUXUXUXUXUXUXUXUXUXUXUXUXUXUXUXUXUXUXUXUXUXUXUXUXUXUXUXUXUXUXUXUXUXUXUXUXUXUXUX",
"UXUXUXUXUXUXUXUXUXUXUXUXUXUXUXUXUXUXUXUX1 5 e r r e 5 1 UXUXUXUXUXUXUXUXUXUXUXUXUXUXUXUXUXUXUXUX",
"UXUXUXUXUXUXUXUXUXUXUXUXUXUXUXUX1 r H *.p.l.n.n.n.z.l.p.*.H d : UXUXUXUXUXUXUXUXUXUXUXUXUXUXUXUX",
"UXUXUXUXUXUXUXUXUXUXUXUXUXUX7 H r.n.Z.Z.Y.|.oXoX2X2X.XY.Z.Z.n.r.H 6 UXUXUXUXUXUXUXUXUXUXUXUXUXUX",
"UXUXUXUXUXUXUXUXUXUXUXUX2 / a.b.).oX2XE.H.3X9X9X6X9X9XJ.W.9XoX).B.s./ 2 UXUXUXUXUXUXUXUXUXUXUXUX",
"UXUXUXUXUXUXUXUXUXUXUXn d.m.).2X9X+X3X.X4.9X2X2X2X2X6X4.oX6X2X9X2X'.N.d.n UXUXUXUXUXUXUXUXUXUXUX",
"UXUXUXUXUXUXUXUXUX- ! m.b._.2X@XoX@X+X2X_.6X+X+X+X+X+X>X2X+X+X+X+X6X'.B.m./ - UXUXUXUXUXUXUXUXUX",
"UXUXUXUXUXUXUXUX1 } m.'..X1.XXOX@X+X Xn.;.) L L L L %.;.B.XX+X@XoX}.1.oX`.m.{ : UXUXUXUXUXUXUXUX",
"UXUXUXUXUXUXUX1 { m.].XXOXL.J.6XP.%.J :.R.<XiXpXpXuX-XT.T F &.).2XF.K.OXXX].M.{ - UXUXUXUXUXUXUX",
"UXUXUXUXUXUX- { m.'. X].[.XX!.%.Y &XcXZXZXCXCXCXCXCXCXZXCXpX9.S %._. X'.'. X~.v.} & UXUXUXUXUXUX",
"UXUXUXUXUXUX( g.~.{.'.'.[.G.S R.bXAXBXBXBXBXBXBXBXBXBXBXBXCXAXcX7.D K.'.~.~.'.~.g.C UXUXUXUXUXUX",
"UXUXUXUXUXh g.l.L.'.~.'.1.T aXAXCXbXBXBXBXBXBXBXBXBXBXBXBXBXBXCXCX-XA w.'.~.~.F.k.h.d UXUXUXUXUX",
"UXUXUXUX1 +.z.1.,.b.~.<.W vXAXZXZXBXBXBXBXbXBXBXBXBXBXBXBXbXCXZXZXAXaXS 0.I.$.W J.a.{ 1 UXUXUXUX",
"UXUXUXUXZ s.b.Y.u.2.2.T uX;Xe.e.-XbXAXBXBXBXBXBXBXBXBXBXCXAXnX;Xe.e.,X,XA F.0.F.P.b.d.V UXUXUXUX",
"UXUXUX2 +.l.b.v.b.F.S gXZXvXfX,X6.U e.ZXZXBXBXBXBXBXBXZXCX8.A 7.1XxXbXZX<XA K.x.z.b.a.+.1 UXUXUX",
"UXUXUXV i.l.l.a.k.%.-XZXBXCXFXHXDXaXU A xXZXBXBXBXBXAXaXp R xXHXHXSXBXBXZXR.$.l.l.l.l.d.M UXUXUX",
"UXUX- [ t.t.r.( J.pXZXBXCXbXCXSXKXLXJX6.u fXZXbXBXAX1X4 %XLXLXFXSXBXBXBXBXZXuXF.' k.p.t.[ % UXUX",
"UXUXq i.r.r.K 2.BXZXBXBXbXBXbXbXvXZXPXLX5.p bXCXCXfX3 %XLXJXCXbXbXBXBXBXBXBXZXxX,.' t.=.+.7 UXUX",
"UXUXM i.=.K E vXCXBXBXBXBXBXbXbXmXbXbXKXLXa >.AXZXU Q LXFXbXBXBXBXBXBXBXBXBXBXZXfXE ' r.i.M UXUX",
"UXUX^ y.^ b <XZXbXBXBXbXBXBXmXmXbXbXbXbXPXNX, fX,X3 IXKXbXBXBXBXBXBXBXBXBXBXBXbXAX*XK &.y.! UXUX",
"UX- ..] k E vXbXvXnXcXcXvXCXCXmXbXbXmXbXbXLXR :.T 5.PXbXBXBXbXbXbXbXvXnXcXcXvXvXBXnXL P X.[ - UX",
"UX6 o.! f 1.nXsXaX,XE.9.7.<.e.aXmXCXbXbXbXDX:X4 4 MXAXbXbXbXbXcX-X9.:.:.9.Q.<XpXgXnX,.B ] ..< UX",
"UXq ..K d 9.dXkXhXhXjXhXqX>X0.Y T &XbXmXbXmXNX- u GXbXbXvXiXq.v A <.>XqXhXhXjXjXkXdX1.h K ..7 UX",
"UXq  .j d 3.lXlXlXlXlXlXlXzXzXjXW.J D *XmXmXCXu s SXvXsXq.u A W.lXzXzXlXjXlXjXjXlXrX%.f l o.e UX",
"UXq ~ h f ^ 7XeXeXeXeXeXeXeXeXeXlXzX_.x Y dXZXu U VX;Xp i W.tXlXeXeXeXeXeXeXeXeXtXoXl f B ~ t UX",
"UX8 ~ h g l  X0XwX8XwXwXwXwXwXwXwXwXtXwX$.i R.i v 7.: %.wXtXwXwXwXwXwXwXwXwXwXwXtX/.l q j ~ q UX",
"UXy ^ f 8 l f.8X9X8X7X8X7X7X7X7X7X7X8X8XyXY.9 : * u U.0X8X7X7X7X7X7X7X7X7X7X7X7X8Xy.l y h ~ < UX",
"UX< ^ h 2 I ~ #X$X$X6X$X6X6X6X6X6X$X6X6X8X0XU.% : |.0X6X6X6X6X9X6X6X6X6X6X6X6X7X}.~ l < j I 1 UX",
"UX& z N - K | @.@X$X@X$X+X+X+X$X$X$X$X+X6X8Xk.$ * I.7X+X+X+X2X$X+X2X+X+X+X+X6X2Xd. .k $ k l UXUX",
"UXUXV K > d  .| j.#X#X@X@X@X@XoXOXOX+X+X+XOXc % $ G +X@X@X@XoX@X@X@X@X@X@X@X@Xg. .o.7 - ! j UXUX",
"UXUXf ] e % ~ O. .h.{.#XXXXXXXXXXXXXXXXX[.t.% , : , v. XXXXXOXOXOXXXOXXX@X Xg.+.@.^ O 8 ^ q UXUX",
"UXUX2 ] m * 6 f.#.O.#.S.].}.}.}.}.}.].Z.b.p % v c @ m N.I.].[.}. X X[.].~.g.i.f.+.* @ B ^ < UXUX",
"UXUXUXK ) e @ e f.A.#.#.h.N.C.I.~.V.V.C.G @ c W E 0 @ P C.V.V.~.~.C.C.M.h.h.A.@.2 o 8 ^ Z UXUXUX",
"UXUXUXr -.N 7 @ 6 { A.A.A.A.C.C.~.`.B.m O 0 ,.T.T.E > O G V.'.~.C.C.V.S.^.A.[ * X 6 M X.q UXUXUX",
"UXUXUX- ] &.m 5 $ $ x ' f.N.S.V.k.G - o 0 E *X4X<XQ.E > o , P l.V.C.M.f.` 5 X o 2 b { ! ; UXUXUX",
"UXUXUXUXf a.) N 0 : O + = 3 3 * @ O ; b ,.*XuXsXsX4XE.E f # o @ = * = +   o # 7 M _ a.r UXUXUXUX",
"UXUXUXUX# ` l._ G f 0 * o + : 1 0 b E D.=XuXcXvXnXsXuX*X,.P f > % + .   $ 6 h G ` z.! UXUXUXUXUX",
"UXUXUXUXUXy s.k.' P N n 7 O 4 Y ,.D.Q.<XiXcXbXbXbXvXgXiX<XE.D.E b O o 7 n C %.*.b.a.> UXUXUXUXUX",
"UXUXUXUXUXUXd N.l.y.{ ` ( C 9 p 7.<XpXcXbXbXBXCXBXBXBXvXcXiX=XW 3 5 C ` *.;.t.x.Z.r UXUXUXUXUXUX",
"UXUXUXUXUXUXUXV `.v.a.a.t.%.;.H x Y T.iXnXbXCXZXBXCXbXgX<Xq.D c / a.3.a.l.b.P.I.M UXUXUXUXUXUXUX",
"UXUXUXUXUXUXUXUXZ `.Z.^.$.2.J.n.n.` N D T <.9.T.e.9.>.Y m N ' B.G.%.>.k.Z.(.`.M UXUXUXUXUXUXUXUX",
"UXUXUXUXUXUXUXUXUXM (.`.G.c.P.).(.(.I.z.*.( G C C H ( -.z.(.(.(.(.w.w.G.).C.M UXUXUXUXUXUXUXUXUX",
"UXUXUXUXUXUXUXUXUXUXd m.[.!.U.(.(.(.).n.w.G.`.).(.`.).1.).(.(.(.(.Y.U.[.n.r UXUXUXUXUXUXUXUXUXUX",
"UXUXUXUXUXUXUXUXUXUXUX1 ` /.].(.).).].$.L.%.I.'.).).].$.Y.).).(.).].(.( 1 UXUXUXUXUXUXUXUXUXUXUX",
"UXUXUXUXUXUXUXUXUXUXUXUXUXr -./.{.].].!.H.H.].|.].|.|.J.!.'.].]./.*.w UXUXUXUXUXUXUXUXUXUXUXUXUX",
"UXUXUXUXUXUXUXUXUXUXUXUXUXUXUXw / z./.{.}.}.].].].].].}.{./.s./ w UXUXUXUXUXUXUXUXUXUXUXUXUXUXUX",
"UXUXUXUXUXUXUXUXUXUXUXUXUXUXUXUXUX: w N ` -.p.z.z.p.-.` N w - UXUXUXUXUXUXUXUXUXUXUXUXUXUXUXUXUX",
"UXUXUXUXUXUXUXUXUXUXUXUXUXUXUXUXUXUXUXUXUXUXUX& & UXUXUXUXUXUXUXUXUXUXUXUXUXUXUXUXUXUXUXUXUXUXUX"
};
