/* XPM */
static char *_7d9000c4caf491ee3abda6923f3daaf[] = {
/* columns rows colors chars-per-pixel */
"64 64 172 2 ",
"   c None",
".  c #252525",
"X  c #272727",
"o  c gray16",
"O  c gray17",
"+  c #2C2C2C",
"@  c gray18",
"#  c #2F2F2F",
"$  c gray19",
"%  c #313131",
"&  c #323232",
"*  c gray20",
"=  c #343434",
"-  c #353535",
";  c gray21",
":  c #393939",
">  c gray23",
",  c gray24",
"<  c #3E3E3E",
"1  c #414141",
"2  c gray26",
"3  c #434343",
"4  c #444444",
"5  c #484848",
"6  c #494949",
"7  c #4B4B4B",
"8  c #4C4C4C",
"9  c gray30",
"0  c #4E4E4E",
"q  c gray31",
"w  c #505050",
"e  c #515151",
"r  c gray32",
"t  c gray33",
"y  c #555555",
"u  c #565656",
"i  c gray34",
"p  c #585858",
"a  c gray35",
"s  c #5A5A5A",
"d  c #5B5B5B",
"f  c gray36",
"g  c #5D5D5D",
"h  c gray37",
"j  c #5F5F5F",
"k  c #606060",
"l  c gray38",
"z  c #626262",
"x  c #646464",
"c  c gray40",
"v  c #676767",
"b  c #6A6A6A",
"n  c gray43",
"m  c #747474",
"M  c #767676",
"N  c #777777",
"B  c gray47",
"V  c #797979",
"C  c gray48",
"Z  c #7B7B7B",
"A  c #7C7C7C",
"S  c gray49",
"D  c #7E7E7E",
"F  c #838383",
"G  c #848484",
"H  c gray52",
"J  c #868686",
"K  c #888888",
"L  c #898989",
"P  c gray55",
"I  c #8D8D8D",
"U  c #8E8E8E",
"Y  c gray56",
"T  c #909090",
"R  c #939393",
"E  c gray58",
"W  c gray59",
"Q  c #979797",
"!  c #989898",
"~  c gray60",
"^  c #9A9A9A",
"/  c gray61",
"(  c #9D9D9D",
")  c #9F9F9F",
"_  c #A0A0A0",
"`  c gray63",
"'  c #A2A2A2",
"]  c #A4A4A4",
"[  c #A5A5A5",
"{  c gray65",
"}  c #A7A7A7",
"|  c gray66",
" . c #AAAAAA",
".. c gray67",
"X. c #ACACAC",
"o. c #AEAEAE",
"O. c #AFAFAF",
"+. c gray69",
"@. c #B2B2B2",
"#. c #B4B4B4",
"$. c gray71",
"%. c #B6B6B6",
"&. c #B7B7B7",
"*. c gray72",
"=. c #B9B9B9",
"-. c gray73",
";. c #BBBBBB",
":. c #BCBCBC",
">. c gray74",
",. c gray",
"<. c gray75",
"1. c #C0C0C0",
"2. c #C1C1C1",
"3. c gray76",
"4. c #C3C3C3",
"5. c gray77",
"6. c #C5C5C5",
"7. c #C6C6C6",
"8. c gray78",
"9. c #C8C8C8",
"0. c gray79",
"q. c #CACACA",
"w. c gray80",
"e. c #CDCDCD",
"r. c #CECECE",
"t. c gray81",
"y. c #D0D0D0",
"u. c gray82",
"i. c #D2D2D2",
"p. c LightGray",
"a. c gray83",
"s. c #D5D5D5",
"d. c gray84",
"f. c #D7D7D7",
"g. c #D8D8D8",
"h. c gray85",
"j. c #DADADA",
"k. c gray86",
"l. c gainsboro",
"z. c #DDDDDD",
"x. c gray87",
"c. c #DFDFDF",
"v. c gray88",
"b. c #E1E1E1",
"n. c #E2E2E2",
"m. c gray89",
"M. c #E4E4E4",
"N. c gray90",
"B. c #E6E6E6",
"V. c #E7E7E7",
"C. c gray91",
"Z. c #E9E9E9",
"A. c #EAEAEA",
"S. c gray92",
"D. c #ECECEC",
"F. c gray93",
"G. c #EEEEEE",
"H. c #F1F1F1",
"J. c gray95",
"K. c #F3F3F3",
"L. c #F4F4F4",
"P. c gray96",
"I. c #F6F6F6",
"U. c gray97",
"Y. c #F8F8F8",
"T. c #F9F9F9",
"R. c gray98",
"E. c #FBFBFB",
"W. c gray99",
"Q. c #FDFDFD",
"!. c #FEFEFE",
"~. c white",
/* pixels */
"                                                                                                                                ",
"                                                                                                                                ",
"                                                                                                                                ",
"                                                                                                                                ",
"      7.@.] @.R                                                                                                 o.:.] : z       ",
"      =.:.M.M.s.^ G                                                                                       &.e.T.P.      z       ",
"      S K.!.e.v.      =.)                                                                             2.M.!.!.s.        M       ",
"        2.P.s.Z.Z.        :.]                                                                     9.K.!.G.s.v.                  ",
"        a   K.!.!.            g.`                                                             =.G.!.M.  9.v.          )         ",
"        %       !.!.              e.U                                                     ^ 2.T.M.7.e.Z.!.!.          C         ",
"                  !.!.                @.                                                ] s.Z.y.9.G.    !.                      ",
"          <         !.!.                9.C                                         R &.Z.z.9.v.!.    !.            L           ",
"          +           !.!.                =.M                                     Q 7.G.y.y.T.    !.!.!.            F           ",
"            h           !.                    z                                 ^ 9.G.9.z.    !.!.!.!.                          ",
"            :                                   a                             @.z.M.7.Z.  !.!.!.!.!.              ^             ",
"            +                                                               &.T.G.7.G.  !.!.!.!.!.                C             ",
"              5                                   h                         P.T.7.M.  !.!.!.!.!.                )               ",
"              %                                     h                     s.!.y.s.  !.!.!.!.                    ^               ",
"                z                                                         y.Z.7.!.!.!.!.!.                                      ",
"                :                                     a                 S z.g.z.!.!.!.!.                      |                 ",
"                %                                     Q                 ^ v.g.T.!.!.!.!.                      G                 ",
"                  5                                   z.                =.v.z.!.!.!.!.                      2.                  ",
"                  %                                   z.              i e.Z.v.!.!.!.                        o.                  ",
"                    z                                 y.U             x y.Z.Z.!.!.!.                      =.                    ",
"                    :                                   |             n s.M.K.!.!.!.                      7.                    ",
"                    o                                   =.            C g.  T.!.!.!.                      L                     ",
"                      2                                 9.            R     !.!.!.                      s.                      ",
"                      +                                 g.            )     !.!.!.                      |                       ",
"                        q                               v.            @.      !.!.                    g.                        ",
"                        %                               M.            :.      !.!.                    2.                        ",
"                          h                             M.          i 9.      !.!.                  y.                          ",
"                          ;                             Z.G         b y.      !.!.                  s.                          ",
"                          o                             v.^         b s.      !.!.                  R                           ",
"                            <                           z.`         M g.      !.!.                Z.                            ",
"                            +                             )         G z.      !.                  `                             ",
"                              4                           |         Q z.      !.                G.                              ",
"                              +                           2.        ) v.      !.                @.                              ",
"                                q                         7.        | v.    !.!.              P.                                ",
"                                %                         9.        =.z.    !.!.              7.                                ",
"                                  5                       y.        =.z.    !.              P.                                  ",
"                                  ;                       y.        :.z.    !.              9.                                  ",
"                                    e                     g.        7.v.                  T.                                    ",
"                                    ;                     g.        y.v.                  g.                                    ",
"                                      e                   g.        g.z.                !.                                      ",
"                                      %                   g.      i g.z.                s.                                      ",
"                                        i                 v.      i z.z.              !.                                        ",
"                                        ;                 z.      h z.z.              g.                                        ",
"                                          e               M.      x M.              !.                                          ",
"                                          %               z.U     m G.              y.                                          ",
"                                            q               R     C K.            !.                                            ",
"                                            %               R     M Z.            7.                                            ",
"                                              4             ^     C             !.                                              ",
"                                              +             )     x           P.&.                                              ",
"                                                <           ]     2           K.                                                ",
"                                                . i         7.    <         T.`                                                 ",
"                                                  ;         e.    4         y.                                                  ",
"                                                    4       `     <       M.                                                    ",
"                                                    + a     ]     ;     e.]                                                     ",
"                                                      q     U     z   S `                                                       ",
"                                                        i e S     x   4                                                         ",
"                                                          q       ; h                                                           ",
"                                                                                                                                ",
"                                                                                                                                ",
"                                                                                                                                "
};
