/* XPM */
static char *_90a6c3b693444f1e10d52b03565003b[] = {
/* columns rows colors chars-per-pixel */
"32 32 56 1 ",
"  c None",
". c #232323",
"X c gray28",
"o c gray30",
"O c #515151",
"+ c #656565",
"@ c DimGray",
"# c gray42",
"$ c #797979",
"% c #7B7B7B",
"& c #808080",
"* c #848484",
"= c #888888",
"- c #898989",
"; c gray55",
": c #8E8E8E",
"> c gray58",
", c #979797",
"< c gray60",
"1 c #9A9A9A",
"2 c #A4A4A4",
"3 c #A7A7A7",
"4 c gray66",
"5 c #A9A9A9",
"6 c gray69",
"7 c #B1B1B1",
"8 c #B2B2B2",
"9 c gray70",
"0 c gray72",
"q c #B9B9B9",
"w c gray",
"e c #C5C5C5",
"r c gray80",
"t c #CDCDCD",
"y c gray83",
"u c gray84",
"i c #D8D8D8",
"p c gray86",
"a c #DFDFDF",
"s c #E4E4E4",
"d c gray90",
"f c #E6E6E6",
"g c #E7E7E7",
"h c #E9E9E9",
"j c #EAEAEA",
"k c #ECECEC",
"l c gray94",
"z c #F1F1F1",
"x c gray95",
"c c #F4F4F4",
"v c gray97",
"b c #F8F8F8",
"n c gray98",
"m c gray99",
"M c #FDFDFD",
"N c white",
/* pixels */
"                                ",
"                                ",
"  yi                        e   ",
"  ,Nj                    9fn    ",
"    N                   jnl     ",
"     N                0kkcN     ",
"                     tl NN      ",
"                    fk NN       ",
"                   yN NN        ",
"                   flNN         ",
"                  @lNN     =    ",
"                  =NN           ",
"                  1NN           ",
"                  5 N     ;     ",
"                  w N           ",
"                  t N    ;      ",
"                  y N           ",
"                  s     3       ",
"                  f     >       ",
"                 +     3        ",
"                 @l    1        ",
"                 %n   5         ",
"                 &n   2         ",
"                 =   9          ",
"           o     >   9          ",
"                 %  0           ",
"            X       9           ",
"                   i            ",
"                                ",
"              .  O*             ",
"                                ",
"                                "
};
