<?xml version="1.0" encoding="utf-8"?>
<!-- Generator: Adobe Illustrator 24.0.0, SVG Export Plug-In . SVG Version: 6.00 Build 0)  -->
<svg version="1.1"
	 id="svg2987" inkscape:version="0.48.0 r9654" sodipodi:docname="clock_green.svg" xmlns:cc="http://creativecommons.org/ns#" xmlns:dc="http://purl.org/dc/elements/1.1/" xmlns:inkscape="http://www.inkscape.org/namespaces/inkscape" xmlns:rdf="http://www.w3.org/1999/02/22-rdf-syntax-ns#" xmlns:sodipodi="http://sodipodi.sourceforge.net/DTD/sodipodi-0.dtd" xmlns:svg="http://www.w3.org/2000/svg"
	 xmlns="http://www.w3.org/2000/svg" xmlns:xlink="http://www.w3.org/1999/xlink" x="0px" y="0px" viewBox="0 0 16 16"
	 style="enable-background:new 0 0 16 16;" xml:space="preserve">
<style type="text/css">
	.st0{fill:#A6A8A7;}
	.st1{fill:#FFFFFF;}
</style>
<sodipodi:namedview  bordercolor="#666666" borderopacity="1.0" id="base" inkscape:current-layer="layer3" inkscape:cx="9.1870806" inkscape:cy="14.089546" inkscape:document-units="px" inkscape:grid-bbox="true" inkscape:guide-bbox="true" inkscape:pageopacity="0.0" inkscape:pageshadow="2" inkscape:window-height="1127" inkscape:window-maximized="1" inkscape:window-width="1920" inkscape:window-x="0" inkscape:window-y="25" inkscape:zoom="8" pagecolor="#ffffff" showgrid="true" showguides="true">
	</sodipodi:namedview>
<g>
	<path class="st0" d="M1.3,4.1c-0.7,1.1-1,2.5-1,3.9s0.4,2.7,1,3.9L8,8L1.3,4.1z"/>
</g>
<g>
	<path class="st1" d="M8,0.2c-2.9,0-5.4,1.6-6.7,3.9L8,8V0.2z"/>
</g>
<g>
	<path class="st0" d="M14.7,4.1C13.4,1.8,10.9,0.2,8,0.2V8L14.7,4.1z"/>
</g>
<g>
	<path class="st0" d="M1.3,11.9c1.3,2.3,3.9,3.9,6.7,3.9V8L1.3,11.9z"/>
</g>
<g>
	<path class="st0" d="M14.7,4.1L8,8l6.7,3.9c0.7-1.1,1-2.5,1-3.9S15.4,5.3,14.7,4.1z"/>
</g>
<g>
	<path class="st0" d="M8,15.8c2.9,0,5.4-1.6,6.7-3.9L8,8V15.8z"/>
</g>
</svg>
