<?xml version="1.0" encoding="utf-8"?>
<!-- Generator: Adobe Illustrator 24.0.0, SVG Export Plug-In . SVG Version: 6.00 Build 0)  -->
<svg version="1.1"
	 id="svg3039" inkscape:export-filename="/home/orion/projects2/bitcoin/tx_mined.png" inkscape:export-xdpi="12" inkscape:export-ydpi="12" inkscape:version="0.48.0 r9654" sodipodi:docname="inout3.svg" xmlns:cc="http://creativecommons.org/ns#" xmlns:dc="http://purl.org/dc/elements/1.1/" xmlns:inkscape="http://www.inkscape.org/namespaces/inkscape" xmlns:rdf="http://www.w3.org/1999/02/22-rdf-syntax-ns#" xmlns:sodipodi="http://sodipodi.sourceforge.net/DTD/sodipodi-0.dtd" xmlns:svg="http://www.w3.org/2000/svg"
	 xmlns="http://www.w3.org/2000/svg" xmlns:xlink="http://www.w3.org/1999/xlink" x="0px" y="0px" viewBox="0 0 120 120"
	 style="enable-background:new 0 0 120 120;" xml:space="preserve">
<style type="text/css">
	.st0{display:none;}
	.st1{display:inline;fill:#AFAFAF;}
	.st2{display:inline;fill:#6E6E6E;}
	.st3{fill:#FFFFFF;}
</style>
<sodipodi:namedview  bordercolor="#666666" borderopacity="1" gridtolerance="10" guidetolerance="10" id="namedview3041" inkscape:current-layer="layer7" inkscape:cx="87.12655" inkscape:cy="67.287943" inkscape:pageopacity="0" inkscape:pageshadow="2" inkscape:window-height="1127" inkscape:window-maximized="1" inkscape:window-width="1920" inkscape:window-x="0" inkscape:window-y="25" inkscape:zoom="1" objecttolerance="10" pagecolor="#ffffff" showgrid="false">
	</sodipodi:namedview>
<g id="layer2" inkscape:groupmode="layer" inkscape:label="base" class="st0">
	<path id="path3053" inkscape:connector-curvature="0" sodipodi:nodetypes="cccccccccccccc" class="st1" d="M45.4,17
		c-14,0.2-25,3.3-37.4,9.6c-9,21.9-6.7,46.4-2,69c26.2,13.2,55.6,13,81.8-0.2c3.9-9.7,1.6-12.8,2.4-23.2c-6.2,0.2-13-4.5-15.9,3
		c-1.5,4.5,1.9,7.4-5,8.1c-16.1,5.2-31.4,5.8-47.3-1.1c-2.2-13.9-3.3-28.6,0.6-42.3c16.9-6.6,33.1-6.1,50-0.2
		c1.3,5.9,1.6,5.8,2.4,11.7c5.6,0.4,14.7,1.8,16.4-5.5c0.5-10-1.9-14.4-4.1-20.3C73.7,21,59.8,16.7,45.4,17z"/>
</g>
<g id="layer3" inkscape:groupmode="layer" inkscape:label="arrow_out" class="st0">
	<path id="path3844" inkscape:connector-curvature="0" sodipodi:nodetypes="cccccscccc" class="st2" d="M64,65.5l0.3-9.5l36.2-0.2
		L93,47l3.8-7.6c0,0,23.4,20.8,22.5,21.2S96.1,83.4,96.1,83.4l-3.1-9l7.5-8.6L64,65.5z"/>
</g>
<g id="layer4" inkscape:groupmode="layer" inkscape:label="arrow_in" class="st0">
	<path id="path4080" inkscape:connector-curvature="0" sodipodi:nodetypes="cccccscccc" class="st2" d="M99.3,65.5L99,56l-36.2-0.2
		l7.8-6.3l-4.2-9.3c0,0-23.4,20-22.5,20.4s23.2,21,23.2,21l3.5-9.6l-7.9-6.1L99.3,65.5z"/>
</g>
<g>
	<path class="st3" d="M64.9,75.4c-3.3,0-6.5,0-9.6,0c-0.4,0-0.9,0-1.3,0c-1.5-0.1-1.9-0.9-1.1-2.2c0.6-0.9,1.2-1.7,1.9-2.5
		C60,64,65.2,57.3,70.4,50.6c0.6-0.8,1.3-1.6,2-2.4c1.5-1.8,2.8-1.8,4.3,0c2.9,3.4,5.7,6.9,8.6,10.3c3.8,4.6,7.7,9.2,11.5,13.8
		c0.2,0.2,0.4,0.5,0.5,0.7c0.5,0.9,0.2,1.6-0.9,1.6c-1.8,0-3.6,0-5.3,0c-1.7,0-3.3,0.1-5,0c-1-0.1-1.3,0.3-1.3,1.3
		c0,7.5,0,14.9,0,22.4c0,3.7,0,7.5,0,11.2c0,1.4-0.3,1.8-1.7,1.9c-0.7,0.1-1.3,0-2,0c-4.5,0-9,0-13.6,0c-2.2,0-2.6-0.4-2.6-2.6
		c0-10.7,0-21.5,0-32.2C64.9,76.4,64.9,76,64.9,75.4z"/>
	<path class="st3" d="M55.1,44.6c3.3,0,6.5,0,9.6,0c0.4,0,0.9,0,1.3,0c1.5,0.1,1.9,0.9,1.1,2.2c-0.6,0.9-1.2,1.7-1.9,2.5
		C60,56,54.8,62.7,49.6,69.4c-0.6,0.8-1.3,1.6-2,2.4c-1.5,1.8-2.8,1.8-4.3,0c-2.9-3.4-5.7-6.9-8.6-10.3c-3.8-4.6-7.7-9.2-11.5-13.8
		c-0.2-0.2-0.4-0.5-0.5-0.7c-0.5-0.9-0.2-1.6,0.9-1.6c1.8,0,3.6,0,5.3,0c1.7,0,3.3-0.1,5,0c1,0.1,1.3-0.3,1.3-1.3
		c0-7.5,0-14.9,0-22.4c0-3.7,0-7.5,0-11.2c0-1.4,0.3-1.8,1.7-1.9c0.7-0.1,1.3,0,2,0c4.5,0,9,0,13.6,0c2.2,0,2.6,0.4,2.6,2.6
		c0,10.7,0,21.5,0,32.2C55.1,43.6,55.1,44,55.1,44.6z"/>
</g>
</svg>
