<?xml version="1.0" encoding="utf-8"?>
<!-- Generator: Adobe Illustrator 24.0.0, SVG Export Plug-In . SVG Version: 6.00 Build 0)  -->
<svg version="1.1"
	 id="svg2993" inkscape:export-filename="/store/orion/projects/bitcoin/questionmark.png" inkscape:export-xdpi="90" inkscape:export-ydpi="90" inkscape:version="0.48.0 r9654" sodipodi:docname="questionmark.svg" xmlns:cc="http://creativecommons.org/ns#" xmlns:dc="http://purl.org/dc/elements/1.1/" xmlns:inkscape="http://www.inkscape.org/namespaces/inkscape" xmlns:rdf="http://www.w3.org/1999/02/22-rdf-syntax-ns#" xmlns:sodipodi="http://sodipodi.sourceforge.net/DTD/sodipodi-0.dtd" xmlns:svg="http://www.w3.org/2000/svg"
	 xmlns="http://www.w3.org/2000/svg" xmlns:xlink="http://www.w3.org/1999/xlink" x="0px" y="0px" viewBox="0 0 16 16"
	 style="enable-background:new 0 0 16 16;" xml:space="preserve">
<style type="text/css">
	.st0{fill:#FFFFFF;}
</style>
<sodipodi:namedview  bordercolor="#666666" borderopacity="1.0" id="base" inkscape:current-layer="layer2" inkscape:cx="10.789648" inkscape:cy="7.6382159" inkscape:document-units="px" inkscape:grid-bbox="true" inkscape:pageopacity="0.0" inkscape:pageshadow="2" inkscape:window-height="1127" inkscape:window-maximized="1" inkscape:window-width="1920" inkscape:window-x="0" inkscape:window-y="25" inkscape:zoom="1" pagecolor="#ffffff" showgrid="true">
	</sodipodi:namedview>
<g>
	<path class="st0" d="M7,10.9c-0.1-0.1-0.1-0.2-0.1-0.3c0-0.3,0-0.4,0-0.6C6.9,9.5,7.1,9,7.4,8.6c0.3-0.4,0.7-0.9,1.2-1.4
		c0.4-0.4,0.7-0.7,0.9-1c0.2-0.3,0.3-0.5,0.3-0.8c0-0.5-0.1-0.9-0.5-1.2C9,3.8,8.6,3.7,8.1,3.7C6.9,3.7,6.2,4.3,6,5.4
		C5.9,5.7,5.7,5.8,5.5,5.8H3.9c-0.1,0-0.2,0-0.3-0.1C3.5,5.6,3.5,5.5,3.5,5.4c0-0.7,0.2-1.3,0.6-1.8C4.5,3,5,2.5,5.7,2.2
		c0.7-0.4,1.5-0.5,2.5-0.5c1,0,1.8,0.2,2.4,0.5c0.6,0.3,1.1,0.7,1.4,1.2c0.3,0.5,0.4,1,0.4,1.5c0,0.6-0.1,1.1-0.4,1.6
		c-0.3,0.4-0.7,1-1.2,1.5c-0.4,0.4-0.7,0.8-0.9,1C9.8,9.3,9.7,9.6,9.6,9.9c0,0.3-0.1,0.5-0.1,0.6c-0.1,0.2-0.1,0.3-0.2,0.3
		C9.2,10.9,9.1,11,9,11H7.2C7.1,11,7,10.9,7,10.9z M6.9,14.2c-0.1-0.1-0.1-0.2-0.1-0.3v-1.6c0-0.1,0-0.2,0.1-0.3
		C7,12,7.1,11.9,7.2,11.9H9c0.1,0,0.2,0,0.3,0.1c0.1,0.1,0.1,0.2,0.1,0.3v1.6c0,0.1,0,0.2-0.1,0.3c-0.1,0.1-0.2,0.1-0.3,0.1H7.2
		C7.1,14.4,7,14.3,6.9,14.2z"/>
</g>
</svg>
